<svg xmlns="http://www.w3.org/2000/svg" xmlns:xlink="http://www.w3.org/1999/xlink" width="500" zoomAndPan="magnify" viewBox="0 0 375 374.999991" height="500" preserveAspectRatio="xMidYMid meet" version="1.0"><defs><g/><clipPath id="cf11f7fbf2"><path d="M 219 124 L 270 124 L 270 149 L 219 149 Z M 219 124 " clip-rule="nonzero"/></clipPath><clipPath id="594e5f6121"><path d="M 215.933594 118.101562 L 285.304688 125.382812 L 278.570312 189.53125 L 209.203125 182.25 Z M 215.933594 118.101562 " clip-rule="nonzero"/></clipPath><clipPath id="7676d08bc7"><path d="M 209.21875 182.109375 L 278.585938 189.390625 L 285.320312 125.242188 L 215.949219 117.960938 Z M 209.21875 182.109375 " clip-rule="nonzero"/></clipPath><clipPath id="786dc18565"><path d="M 220 137 L 277 137 L 277 163 L 220 163 Z M 220 137 " clip-rule="nonzero"/></clipPath><clipPath id="3994e15497"><path d="M 215.933594 118.101562 L 285.304688 125.382812 L 278.570312 189.53125 L 209.203125 182.25 Z M 215.933594 118.101562 " clip-rule="nonzero"/></clipPath><clipPath id="f650103928"><path d="M 209.21875 182.109375 L 278.585938 189.390625 L 285.320312 125.242188 L 215.949219 117.960938 Z M 209.21875 182.109375 " clip-rule="nonzero"/></clipPath><clipPath id="aaaaf714ee"><path d="M 234 152 L 278 152 L 278 178 L 234 178 Z M 234 152 " clip-rule="nonzero"/></clipPath><clipPath id="1d75e8e6ef"><path d="M 215.933594 118.101562 L 285.304688 125.382812 L 278.570312 189.53125 L 209.203125 182.25 Z M 215.933594 118.101562 " clip-rule="nonzero"/></clipPath><clipPath id="3ddbee59bd"><path d="M 209.21875 182.109375 L 278.585938 189.390625 L 285.320312 125.242188 L 215.949219 117.960938 Z M 209.21875 182.109375 " clip-rule="nonzero"/></clipPath><clipPath id="08060dcb23"><path d="M 251 171 L 274 171 L 274 186 L 251 186 Z M 251 171 " clip-rule="nonzero"/></clipPath><clipPath id="1049dfa100"><path d="M 215.933594 118.101562 L 285.304688 125.382812 L 278.570312 189.53125 L 209.203125 182.25 Z M 215.933594 118.101562 " clip-rule="nonzero"/></clipPath><clipPath id="f187d14fae"><path d="M 209.21875 182.109375 L 278.585938 189.390625 L 285.320312 125.242188 L 215.949219 117.960938 Z M 209.21875 182.109375 " clip-rule="nonzero"/></clipPath><clipPath id="396a4e3b02"><path d="M 225 121 L 256 121 L 256 135 L 225 135 Z M 225 121 " clip-rule="nonzero"/></clipPath><clipPath id="17fa5b7a13"><path d="M 215.933594 118.101562 L 285.304688 125.382812 L 278.570312 189.53125 L 209.203125 182.25 Z M 215.933594 118.101562 " clip-rule="nonzero"/></clipPath><clipPath id="d52202c570"><path d="M 209.21875 182.109375 L 278.585938 189.390625 L 285.320312 125.242188 L 215.949219 117.960938 Z M 209.21875 182.109375 " clip-rule="nonzero"/></clipPath><clipPath id="4a00f1625d"><path d="M 91.902344 156.203125 L 209.804688 156.203125 L 209.804688 186.027344 L 91.902344 186.027344 Z M 91.902344 156.203125 " clip-rule="nonzero"/></clipPath><clipPath id="70f4cb0a05"><path d="M 99.402344 156.203125 L 202.199219 156.203125 C 204.1875 156.203125 206.097656 156.992188 207.503906 158.398438 C 208.910156 159.808594 209.699219 161.714844 209.699219 163.703125 L 209.699219 178.527344 C 209.699219 180.519531 208.910156 182.425781 207.503906 183.832031 C 206.097656 185.238281 204.1875 186.027344 202.199219 186.027344 L 99.402344 186.027344 C 97.414062 186.027344 95.507812 185.238281 94.097656 183.832031 C 92.691406 182.425781 91.902344 180.519531 91.902344 178.527344 L 91.902344 163.703125 C 91.902344 161.714844 92.691406 159.808594 94.097656 158.398438 C 95.507812 156.992188 97.414062 156.203125 99.402344 156.203125 Z M 99.402344 156.203125 " clip-rule="nonzero"/></clipPath></defs><g clip-path="url(#cf11f7fbf2)"><g clip-path="url(#594e5f6121)"><g clip-path="url(#7676d08bc7)"><path fill="#050a30" d="M 248.070312 148.386719 C 238.660156 148.722656 213.21875 144.214844 220.355469 136.648438 C 220.753906 136.222656 221.347656 135.734375 221.832031 135.414062 C 222.292969 135.109375 224.675781 133.625 226.320312 134.453125 C 239.066406 143.625 263.019531 139.925781 262.105469 131.460938 C 261.804688 128.6875 258.910156 126.339844 255.695312 124.75 C 255.703125 124.734375 255.699219 124.714844 255.707031 124.699219 C 256.726562 125.136719 257.046875 125.296875 258.015625 125.796875 C 260.335938 127.09375 260.574219 127.230469 262.117188 128.277344 C 263.148438 129.042969 264.507812 130.085938 265.496094 130.90625 C 275.222656 140.042969 264.109375 147.800781 248.070312 148.386719 " fill-opacity="1" fill-rule="evenodd"/></g></g></g><g clip-path="url(#786dc18565)"><g clip-path="url(#3994e15497)"><g clip-path="url(#f650103928)"><path fill="#050a30" d="M 226.710938 150.484375 C 253.507812 158.035156 277.472656 148.691406 271.925781 137.054688 C 271.953125 137.035156 271.984375 137.019531 272.011719 137 C 273.300781 139.019531 274.285156 140.75 275.582031 143.960938 L 276.105469 145.398438 C 281.246094 164.84375 235.011719 165.664062 222.972656 159.269531 C 220.355469 157.882812 219.429688 154.839844 220.917969 152.492188 C 221.589844 151.429688 223.238281 149.757812 226.710938 150.484375 " fill-opacity="1" fill-rule="evenodd"/></g></g></g><g clip-path="url(#aaaaf714ee)"><g clip-path="url(#1d75e8e6ef)"><g clip-path="url(#3ddbee59bd)"><path fill="#050a30" d="M 250.996094 167.707031 C 254.171875 167.433594 257.207031 166.957031 260.019531 166.28125 C 262.816406 165.609375 265.40625 164.742188 267.675781 163.691406 C 269.945312 162.640625 271.894531 161.402344 273.457031 159.988281 C 274.183594 159.332031 274.800781 158.652344 275.3125 157.960938 C 275.832031 157.273438 276.234375 156.566406 276.546875 155.851562 C 276.851562 155.136719 277.050781 154.410156 277.160156 153.683594 C 277.207031 153.375 277.21875 153.070312 277.226562 152.765625 C 277.242188 152.765625 277.253906 152.757812 277.277344 152.757812 C 277.453125 155.417969 277.46875 156.371094 277.261719 159.363281 C 277.117188 160.417969 276.964844 161.828125 276.777344 162.878906 C 276.199219 164.988281 274.457031 171.410156 260.28125 175.15625 C 260.054688 175.214844 238.050781 180.566406 235.042969 173.910156 C 234.683594 173.117188 234.636719 171.960938 234.929688 171.167969 C 235.273438 170.234375 236.570312 168.039062 241.148438 167.902344 C 244.515625 168.050781 247.824219 167.980469 250.996094 167.707031 " fill-opacity="1" fill-rule="evenodd"/></g></g></g><g clip-path="url(#08060dcb23)"><g clip-path="url(#1049dfa100)"><g clip-path="url(#f187d14fae)"><path fill="#050a30" d="M 257.902344 179.613281 C 259.339844 179.285156 260.71875 178.90625 262.035156 178.472656 C 263.34375 178.046875 264.585938 177.5625 265.75 177.035156 C 266.910156 176.503906 267.988281 175.925781 268.972656 175.300781 C 269.957031 174.671875 270.855469 174 271.648438 173.28125 C 272 172.957031 272.328125 172.628906 272.628906 172.296875 C 272.929688 171.96875 273.207031 171.632812 273.449219 171.289062 C 273.511719 171.210938 273.554688 171.128906 273.613281 171.050781 C 273.605469 171.191406 271.707031 174.898438 270.097656 177.132812 C 269.105469 178.519531 268.109375 179.9375 265.183594 181.871094 C 264.308594 182.453125 263.320312 182.957031 262.285156 183.433594 C 261.230469 183.910156 260.117188 184.34375 258.941406 184.734375 C 257.757812 185.121094 256.515625 185.464844 255.222656 185.761719 C 250.890625 186.480469 251.539062 184.078125 252.109375 183.175781 C 252.453125 182.628906 253.894531 180.753906 257.902344 179.613281 " fill-opacity="1" fill-rule="evenodd"/></g></g></g><g clip-path="url(#396a4e3b02)"><g clip-path="url(#17fa5b7a13)"><g clip-path="url(#d52202c570)"><path fill="#050a30" d="M 244.277344 134.347656 C 238.21875 134.414062 221.933594 131.101562 226.644531 126.347656 C 226.90625 126.082031 227.296875 125.777344 227.613281 125.582031 C 227.917969 125.390625 229.472656 124.476562 230.515625 125.035156 C 241.753906 133.5625 258.515625 128.046875 245.582031 121.246094 C 245.582031 121.234375 245.582031 121.222656 245.582031 121.214844 C 259.492188 127.621094 258.925781 134.183594 244.277344 134.347656 " fill-opacity="1" fill-rule="evenodd"/></g></g></g><g clip-path="url(#4a00f1625d)"><g clip-path="url(#70f4cb0a05)"><path fill="#050a30" d="M 91.902344 156.203125 L 209.6875 156.203125 L 209.6875 186.027344 L 91.902344 186.027344 Z M 91.902344 156.203125 " fill-opacity="1" fill-rule="nonzero"/></g></g><g fill="#f4f6fc" fill-opacity="1"><g transform="translate(108.31359, 174.203689)"><g><path d="M 7.40625 -4.390625 C 7.894531 -4.203125 8.273438 -3.929688 8.546875 -3.578125 C 8.828125 -3.234375 8.96875 -2.8125 8.96875 -2.3125 C 8.96875 -1.582031 8.660156 -1.015625 8.046875 -0.609375 C 7.441406 -0.203125 6.5625 0 5.40625 0 L 0.6875 0 L 0.6875 -8.40625 L 5.171875 -8.40625 C 6.296875 -8.40625 7.140625 -8.203125 7.703125 -7.796875 C 8.273438 -7.398438 8.5625 -6.867188 8.5625 -6.203125 C 8.5625 -5.804688 8.460938 -5.453125 8.265625 -5.140625 C 8.078125 -4.835938 7.789062 -4.585938 7.40625 -4.390625 Z M 3.46875 -6.421875 L 3.46875 -5.171875 L 4.78125 -5.171875 C 5.40625 -5.171875 5.71875 -5.378906 5.71875 -5.796875 C 5.71875 -6.210938 5.40625 -6.421875 4.78125 -6.421875 Z M 5.171875 -1.984375 C 5.796875 -1.984375 6.109375 -2.203125 6.109375 -2.640625 C 6.109375 -3.078125 5.796875 -3.296875 5.171875 -3.296875 L 3.46875 -3.296875 L 3.46875 -1.984375 Z M 5.171875 -1.984375 "/></g></g></g><g fill="#f4f6fc" fill-opacity="1"><g transform="translate(119.980473, 174.203689)"><g><path d="M 4.28125 -2.109375 L 3.515625 -2.109375 L 3.515625 0 L 0.6875 0 L 0.6875 -8.40625 L 4.734375 -8.40625 C 5.503906 -8.40625 6.175781 -8.273438 6.75 -8.015625 C 7.332031 -7.753906 7.78125 -7.382812 8.09375 -6.90625 C 8.40625 -6.425781 8.5625 -5.867188 8.5625 -5.234375 C 8.5625 -4.628906 8.421875 -4.101562 8.140625 -3.65625 C 7.867188 -3.207031 7.476562 -2.851562 6.96875 -2.59375 L 8.734375 0 L 5.71875 0 Z M 5.703125 -5.234375 C 5.703125 -5.546875 5.601562 -5.785156 5.40625 -5.953125 C 5.21875 -6.128906 4.929688 -6.21875 4.546875 -6.21875 L 3.515625 -6.21875 L 3.515625 -4.25 L 4.546875 -4.25 C 4.929688 -4.25 5.21875 -4.332031 5.40625 -4.5 C 5.601562 -4.675781 5.703125 -4.921875 5.703125 -5.234375 Z M 5.703125 -5.234375 "/></g></g></g><g fill="#f4f6fc" fill-opacity="1"><g transform="translate(131.311678, 174.203689)"><g><path d="M 7.671875 -2.140625 L 7.671875 0 L 0.6875 0 L 0.6875 -8.40625 L 7.515625 -8.40625 L 7.515625 -6.265625 L 3.46875 -6.265625 L 3.46875 -5.28125 L 7.015625 -5.28125 L 7.015625 -3.234375 L 3.46875 -3.234375 L 3.46875 -2.140625 Z M 7.671875 -2.140625 "/></g></g></g><g fill="#f4f6fc" fill-opacity="1"><g transform="translate(141.779734, 174.203689)"><g><path d="M 6.40625 -1.46875 L 3.21875 -1.46875 L 2.65625 0 L -0.234375 0 L 3.4375 -8.40625 L 6.234375 -8.40625 L 9.90625 0 L 6.96875 0 Z M 5.625 -3.5 L 4.8125 -5.609375 L 4 -3.5 Z M 5.625 -3.5 "/></g></g></g><g fill="#f4f6fc" fill-opacity="1"><g transform="translate(153.84223, 174.203689)"><g><path d="M 4.109375 -2.78125 L 3.46875 -2.078125 L 3.46875 0 L 0.6875 0 L 0.6875 -8.40625 L 3.46875 -8.40625 L 3.46875 -5.359375 L 6.234375 -8.40625 L 9.3125 -8.40625 L 5.953125 -4.703125 L 9.484375 0 L 6.203125 0 Z M 4.109375 -2.78125 "/></g></g></g><g fill="#f4f6fc" fill-opacity="1"><g transform="translate(165.413201, 174.203689)"><g><path d="M 0.6875 -8.40625 L 3.515625 -8.40625 L 3.515625 0 L 0.6875 0 Z M 0.6875 -8.40625 "/></g></g></g><g fill="#f4f6fc" fill-opacity="1"><g transform="translate(172.009061, 174.203689)"><g><path d="M 8.96875 -8.40625 L 8.96875 0 L 6.640625 0 L 3.4375 -3.8125 L 3.4375 0 L 0.6875 0 L 0.6875 -8.40625 L 3.015625 -8.40625 L 6.203125 -4.578125 L 6.203125 -8.40625 Z M 8.96875 -8.40625 "/></g></g></g><g fill="#f4f6fc" fill-opacity="1"><g transform="translate(184.047581, 174.203689)"><g><path d="M 6.234375 -4.421875 L 8.703125 -4.421875 L 8.703125 -0.875 C 8.203125 -0.53125 7.625 -0.265625 6.96875 -0.078125 C 6.3125 0.0976562 5.671875 0.1875 5.046875 0.1875 C 4.148438 0.1875 3.34375 0.00390625 2.625 -0.359375 C 1.914062 -0.734375 1.359375 -1.253906 0.953125 -1.921875 C 0.546875 -2.585938 0.34375 -3.347656 0.34375 -4.203125 C 0.34375 -5.046875 0.546875 -5.800781 0.953125 -6.46875 C 1.359375 -7.132812 1.921875 -7.65625 2.640625 -8.03125 C 3.367188 -8.40625 4.1875 -8.59375 5.09375 -8.59375 C 5.925781 -8.59375 6.664062 -8.453125 7.3125 -8.171875 C 7.96875 -7.898438 8.507812 -7.5 8.9375 -6.96875 L 7.125 -5.375 C 6.601562 -5.988281 5.976562 -6.296875 5.25 -6.296875 C 4.625 -6.296875 4.125 -6.109375 3.75 -5.734375 C 3.382812 -5.359375 3.203125 -4.847656 3.203125 -4.203125 C 3.203125 -3.566406 3.382812 -3.054688 3.75 -2.671875 C 4.113281 -2.285156 4.597656 -2.09375 5.203125 -2.09375 C 5.566406 -2.09375 5.910156 -2.160156 6.234375 -2.296875 Z M 6.234375 -4.421875 "/></g></g></g><g fill="#ff2768" fill-opacity="1"><g transform="translate(89.338175, 235.592203)"><g><path d="M 40.859375 -38.296875 L 40.859375 0 L 30.25 0 L 15.703125 -17.390625 L 15.703125 0 L 3.125 0 L 3.125 -38.296875 L 13.734375 -38.296875 L 28.28125 -20.890625 L 28.28125 -38.296875 Z M 40.859375 -38.296875 "/></g></g></g><g fill="#ff2768" fill-opacity="1"><g transform="translate(134.691882, 235.592203)"><g><path d="M 34.953125 -9.734375 L 34.953125 0 L 3.125 0 L 3.125 -38.296875 L 34.25 -38.296875 L 34.25 -28.5625 L 15.8125 -28.5625 L 15.8125 -24.0625 L 32 -24.0625 L 32 -14.765625 L 15.8125 -14.765625 L 15.8125 -9.734375 Z M 34.953125 -9.734375 "/></g></g></g><g fill="#ff2768" fill-opacity="1"><g transform="translate(172.878717, 235.592203)"><g><path d="M 65.421875 -38.296875 L 53.171875 0 L 39.328125 0 L 33.15625 -20.453125 L 26.640625 0 L 12.796875 0 L 0.546875 -38.296875 L 13.84375 -38.296875 L 20.515625 -16.515625 L 27.578125 -38.296875 L 39.4375 -38.296875 L 46.109375 -16.25 L 53.171875 -38.296875 Z M 65.421875 -38.296875 "/></g></g></g><g fill="#ff2768" fill-opacity="1"><g transform="translate(240.225416, 235.592203)"><g><path d="M 36.921875 -10.015625 L 36.921875 0 L 1.75 0 L 1.75 -7.9375 L 19.25 -28.28125 L 2.296875 -28.28125 L 2.296875 -38.296875 L 36.046875 -38.296875 L 36.046875 -30.359375 L 18.546875 -10.015625 Z M 36.921875 -10.015625 "/></g></g></g></svg>